<?xml version="1.0" standalone="no"?>
<!DOCTYPE svg PUBLIC "-//W3C//DTD SVG 20010904//EN"
 "http://www.w3.org/TR/2001/REC-SVG-20010904/DTD/svg10.dtd">
<svg version="1.0" xmlns="http://www.w3.org/2000/svg"
 width="800.000000pt" height="800.000000pt" viewBox="0 0 800.000000 800.000000"
 preserveAspectRatio="xMidYMid meet">

<g transform="translate(0.000000,800.000000) scale(0.100000,-0.100000)"
fill="#000000" stroke="none">
<path d="M3795 6982 c-40 -9 -109 -14 -161 -13 -100 3 -214 -21 -214 -45 0
-16 39 -44 62 -44 25 0 23 -25 -4 -42 -26 -17 -19 -48 12 -48 30 0 28 -57 -2
-69 -31 -11 -38 2 -38 72 0 79 -27 127 -71 127 -14 0 -10 -47 15 -158 22 -99
43 -143 53 -114 3 6 18 12 34 12 41 0 37 -26 -6 -40 -19 -6 -37 -15 -40 -20
-9 -15 26 -40 56 -40 26 0 30 -3 27 -22 -2 -16 -18 -30 -47 -45 -59 -30 -67
-39 -51 -58 32 -39 97 -9 250 114 36 29 10 45 -37 23 -24 -12 -36 -13 -44 -5
-8 8 -1 17 29 32 22 11 43 25 46 30 11 17 -25 41 -60 41 -19 0 -34 5 -34 10 0
6 4 10 9 10 5 0 22 5 38 12 15 6 38 10 50 9 12 -1 45 8 73 20 31 13 55 18 60
13 5 -5 13 -55 16 -111 l7 -102 -25 -6 c-33 -8 -27 -35 14 -70 63 -53 85 -23
68 92 -17 120 -15 139 21 154 53 22 89 58 89 90 0 22 -6 30 -25 35 -14 3 -35
4 -47 1 -17 -4 -28 1 -42 20 -19 26 -19 26 7 45 69 50 73 56 57 72 -28 28 -71
34 -145 18z m29 -44 c-18 -32 -50 -58 -71 -58 -16 0 -23 -6 -23 -18 0 -19 37
-42 67 -42 27 0 2 -16 -47 -29 -25 -7 -53 -15 -63 -17 -16 -5 -17 0 -12 48 11
94 13 100 35 88 30 -16 53 -12 85 15 34 28 39 30 29 13z m-219 -145 c-4 -28
-11 -43 -21 -43 -19 0 -18 46 1 54 22 8 18 37 -5 43 -32 8 -25 64 10 75 12 4
16 -6 18 -41 2 -25 1 -65 -3 -88z m295 -16 c0 -2 -10 -12 -21 -23 -22 -19 -22
-19 -10 4 10 18 31 31 31 19z"/>
<path d="M4428 6926 c-96 -51 -103 -58 -100 -101 3 -43 -35 -233 -51 -254 -7
-9 -21 -16 -32 -16 -30 0 -34 -86 -6 -116 18 -19 23 -20 37 -8 12 10 15 24 11
60 -5 43 -4 46 14 42 13 -4 19 -14 19 -34 0 -35 33 -71 56 -62 12 4 15 16 12
44 -4 47 16 54 25 10 7 -31 40 -57 58 -45 7 4 9 23 6 45 -4 29 -2 39 9 39 8 0
14 -10 14 -25 0 -28 32 -65 55 -65 11 0 15 11 15 40 0 39 1 40 34 40 19 0 37
-4 40 -8 2 -4 -4 -26 -13 -48 -17 -36 -22 -40 -47 -37 -16 2 -37 -2 -48 -10
-15 -11 -17 -17 -7 -35 6 -12 18 -22 25 -22 8 0 19 -6 26 -14 22 -28 81 18
119 93 12 22 25 42 30 45 11 7 2 53 -14 66 -15 13 -175 30 -287 30 -75 0 -87
2 -81 16 3 9 12 13 22 9 9 -4 82 -8 164 -9 146 -3 147 -2 147 20 0 29 -21 34
-165 35 -141 1 -205 17 -80 19 185 5 165 -1 185 54 11 26 27 57 36 67 17 19
17 21 -3 47 -14 18 -30 27 -49 28 -16 0 -54 4 -84 8 l-55 9 48 14 c44 13 48
17 45 41 -4 40 -39 37 -130 -12z m-12 -73 c-1 -22 35 -31 96 -23 58 8 71 1 60
-30 -7 -19 -10 -21 -15 -7 -9 24 -125 25 -134 1 -10 -26 26 -45 76 -42 28 1
46 -2 49 -10 3 -9 -19 -12 -82 -12 -47 0 -86 3 -86 7 0 4 5 21 12 39 9 25 9
39 0 58 -8 19 -8 26 1 30 21 8 25 6 23 -11z"/>
<path d="M2830 6784 c-69 -35 -134 -64 -145 -64 -31 -1 -90 -34 -90 -50 0 -35
119 -56 144 -26 14 16 86 56 101 56 6 0 10 -8 10 -17 1 -16 14 -57 35 -105 4
-11 3 -18 -3 -18 -6 0 -13 12 -16 28 -4 15 -21 37 -42 51 -31 21 -37 23 -59
11 -31 -17 -31 -21 0 -58 14 -17 25 -39 25 -49 0 -11 -11 -30 -25 -43 -14 -13
-25 -31 -25 -41 0 -18 33 -35 49 -24 6 3 11 -20 13 -56 2 -39 8 -64 16 -67 19
-6 65 103 59 138 -4 20 -1 33 13 45 18 16 19 15 35 -17 23 -45 55 -78 75 -78
10 0 36 7 59 15 l41 14 0 -29 c0 -26 -5 -30 -52 -45 -29 -10 -90 -35 -135 -56
-46 -22 -89 -39 -97 -39 -18 0 -78 124 -70 144 7 19 -42 43 -79 38 -42 -5 -44
-28 -5 -67 18 -19 53 -71 77 -117 24 -46 46 -85 47 -87 5 -5 60 17 134 54 36
18 112 48 170 66 107 33 126 45 110 64 -5 6 -12 67 -15 135 l-5 123 -34 24
c-32 23 -35 24 -64 9 -42 -22 -49 -36 -25 -55 11 -9 23 -33 27 -52 6 -35 5
-36 -33 -47 -55 -17 -66 -15 -79 13 -17 36 -16 38 23 59 43 23 37 35 -15 32
-43 -3 -44 -2 -55 69 -4 22 -9 48 -11 57 -4 13 8 24 50 44 30 14 57 32 60 40
6 15 -30 44 -54 43 -8 0 -71 -29 -140 -65z"/>
<path d="M5176 6757 c-6 -31 -8 -32 -46 -29 -31 3 -40 1 -40 -12 0 -8 11 -23
25 -32 37 -24 31 -38 -13 -30 l-38 6 -13 -62 c-10 -48 -10 -63 -1 -66 14 -5
-65 -52 -86 -52 -8 0 -14 -4 -14 -10 0 -5 16 -10 35 -10 19 0 35 -5 35 -10 0
-6 -18 -46 -40 -90 -46 -92 -52 -125 -18 -117 12 4 55 -4 95 -15 71 -21 94
-38 53 -38 -11 0 -20 -4 -20 -9 0 -17 37 -18 79 -1 55 21 172 125 165 145 -4
9 0 15 10 15 21 0 21 1 -15 -77 -57 -126 -61 -134 -55 -149 6 -16 122 -74 148
-74 23 0 46 36 54 85 3 22 7 42 9 45 2 3 0 12 -4 19 -6 9 -14 3 -29 -21 -12
-19 -30 -42 -40 -52 -18 -16 -22 -16 -61 0 -50 20 -49 26 13 129 42 68 52 75
88 60 15 -6 25 8 59 81 22 49 52 105 67 124 45 59 42 64 -93 118 -68 28 -81
30 -90 18 -9 -12 -14 -12 -34 3 -20 15 -21 19 -7 30 22 18 20 38 -3 51 -26 14
-41 13 -41 -3 0 -7 -6 -21 -13 -30 -10 -15 -17 -16 -45 -6 -36 12 -36 12 -20
39 10 15 9 23 -6 39 -27 30 -43 26 -50 -12z m80 -136 c-7 -10 -54 -2 -62 10
-12 21 8 28 37 14 16 -9 27 -20 25 -24z m-115 -21 c11 0 11 -11 0 -28 -5 -9
-17 -11 -34 -7 -23 6 -25 10 -16 27 6 12 17 17 26 14 8 -3 19 -6 24 -6z m206
4 c33 -9 18 -36 -16 -28 -32 8 -35 10 -26 23 7 13 12 13 42 5z m161 -26 c25
-11 29 -17 22 -35 -9 -21 -9 -21 -68 -5 -58 15 -60 17 -49 40 12 26 35 26 95
0z m-227 -18 c13 0 11 -13 -4 -34 -9 -12 -18 -15 -33 -9 -18 7 -20 12 -13 32
6 15 14 21 25 17 9 -3 20 -6 25 -6z m-96 -44 c0 -45 -6 -49 -56 -41 -40 7 -41
9 -24 21 10 8 27 14 37 14 9 0 22 9 28 20 14 27 15 26 15 -14z m111 -73 c-33
-62 -34 -68 -20 -84 15 -17 12 -22 -35 -72 -50 -52 -53 -54 -81 -44 -37 14
-41 40 -5 31 31 -8 46 21 21 39 -28 20 -11 44 28 39 42 -5 56 14 22 30 -38 17
-32 31 9 24 31 -6 35 -4 35 14 0 11 -7 23 -15 26 -19 8 -9 24 14 24 10 0 26 9
36 20 30 33 28 23 -9 -47z m182 46 c23 -9 26 -17 14 -36 -10 -16 -132 5 -132
22 0 34 48 40 118 14z m-341 -49 c16 0 21 -4 16 -16 -5 -13 -15 -15 -45 -11
-45 6 -53 11 -43 27 4 7 17 9 29 6 11 -3 31 -6 43 -6z m291 -31 c35 -12 39
-20 18 -38 -10 -8 -30 -10 -59 -6 -58 9 -71 18 -62 44 7 24 25 23 103 0z
m-326 -33 c20 -5 25 -10 21 -27 -4 -12 -11 -18 -20 -15 -8 3 -22 6 -31 6 -27
0 -45 17 -39 33 3 9 14 14 24 12 10 -2 30 -6 45 -9z m-3 -82 c3 -2 0 -9 -6
-15 -12 -12 -93 8 -93 24 0 9 89 1 99 -9z"/>
<path d="M1998 6359 c-27 -15 -22 -30 22 -77 22 -24 80 -100 129 -170 l90
-127 -40 -40 -40 -40 -27 30 c-15 17 -36 43 -47 58 -25 34 -127 66 -151 46
-21 -17 -18 -26 19 -56 39 -34 122 -119 158 -161 35 -41 78 -44 108 -6 12 15
21 33 21 41 0 7 36 50 79 94 66 67 84 80 108 78 39 -3 71 10 76 30 7 34 -74
239 -114 287 -25 31 -106 4 -93 -30 3 -9 10 -16 15 -16 12 0 89 -155 89 -178
0 -22 -112 -100 -118 -83 -2 6 -33 55 -69 108 -76 115 -103 165 -103 192 0 10
-7 22 -16 25 -24 9 -77 7 -96 -5z"/>
<path d="M5873 6290 c-4 -14 -14 -20 -34 -20 -46 0 -43 -18 7 -50 27 -16 42
-30 34 -30 -9 0 -8 -7 7 -22 28 -32 35 -55 17 -62 -9 -3 -20 6 -30 27 -9 18
-22 35 -28 39 -17 11 -36 -12 -30 -38 4 -17 2 -24 -7 -24 -18 1 -78 15 -101
25 -24 10 -23 -6 2 -33 18 -19 42 -28 120 -46 16 -3 29 -16 37 -35 7 -19 23
-35 44 -44 19 -8 54 -28 79 -45 32 -22 48 -28 57 -20 9 8 15 3 23 -17 5 -14
10 -30 10 -34 0 -13 66 -71 81 -71 26 0 29 12 10 39 -22 31 -71 127 -71 139 0
5 6 9 13 9 91 6 105 4 142 -16 47 -25 58 -26 75 -6 18 22 -5 80 -45 111 -38
29 -60 24 -51 -11 6 -23 4 -22 -46 10 -29 19 -64 43 -78 53 -57 43 -90 50 -90
17 0 -11 -20 -25 -36 -25 -11 0 -2 29 11 34 19 7 19 25 -1 47 -11 13 -26 16
-52 13 -21 -2 -31 -1 -24 2 24 11 34 42 21 67 -22 41 -57 50 -66 17z m207
-240 c13 -8 13 -10 -2 -10 -9 0 -20 5 -23 10 -8 13 5 13 25 0z m-70 -10 c0
-10 -98 -6 -108 5 -3 3 20 5 51 5 32 0 57 -4 57 -10z"/>
<path d="M5970 6253 c0 -10 7 -27 15 -37 15 -20 225 -129 233 -121 2 2 -7 19
-20 37 -14 18 -23 41 -21 50 2 9 -9 31 -25 49 -25 28 -32 31 -45 20 -9 -7 -13
-19 -9 -29 6 -17 -3 -13 -73 35 -28 19 -55 17 -55 -4z"/>
<path d="M5740 6032 c0 -28 26 -58 77 -87 27 -16 50 -29 52 -31 6 -6 -43 -74
-53 -74 -6 0 -20 9 -32 21 -22 21 -22 21 -33 1 -17 -31 17 -122 46 -122 6 0
38 29 70 65 32 36 63 65 69 65 6 0 33 -20 60 -45 53 -49 57 -51 72 -32 19 22
-9 59 -83 108 -254 168 -245 163 -245 131z"/>
<path d="M5690 5970 c-8 -15 -21 -20 -50 -20 -47 0 -50 -11 -14 -39 41 -32 91
-24 114 19 13 24 -3 60 -25 60 -8 0 -19 -9 -25 -20z"/>
<path d="M5952 5787 c-15 -19 -23 -107 -12 -128 23 -42 60 -10 60 53 0 66 -25
104 -48 75z"/>
<path d="M4966 5138 c-103 -11 -247 -44 -255 -57 -4 -6 -23 -17 -43 -25 -51
-22 -183 -124 -247 -190 -48 -52 -65 -62 -180 -107 -186 -74 -439 -200 -495
-247 -27 -22 -52 -40 -55 -39 -18 4 -113 -19 -244 -59 -94 -29 -157 -44 -173
-40 -13 4 -48 21 -77 40 -103 65 -216 115 -472 208 -252 92 -305 109 -407 128
-40 8 -57 6 -114 -16 -36 -13 -82 -33 -102 -43 -29 -14 -53 -17 -108 -13 -65
4 -77 1 -145 -30 -99 -47 -124 -68 -116 -99 8 -32 130 -123 392 -296 110 -72
246 -166 303 -210 56 -43 118 -86 136 -95 43 -22 58 -44 136 -193 68 -130 214
-379 238 -407 14 -16 12 -20 -14 -40 -29 -23 -76 -63 -198 -172 -80 -70 -256
-265 -256 -283 0 -6 6 -15 13 -20 6 -4 116 -11 242 -15 127 -5 239 -9 250 -9
11 -1 85 30 165 68 80 39 166 78 192 87 l46 18 86 -51 c217 -129 252 -149 274
-156 39 -12 102 -123 159 -280 14 -38 39 -85 55 -103 16 -19 40 -52 55 -75 14
-23 39 -57 57 -76 l31 -34 -48 7 c-42 5 -72 2 -164 -19 -25 -6 -67 -69 -59
-90 8 -23 40 -18 65 9 29 31 101 47 160 36 25 -4 50 -6 57 -3 6 2 37 -10 67
-26 30 -17 93 -44 140 -60 154 -52 204 -79 211 -112 4 -23 11 -29 31 -29 31 0
39 18 31 64 -6 30 -13 36 -91 71 -47 21 -84 40 -82 42 3 2 51 -3 108 -12 112
-16 139 -31 164 -93 10 -21 21 -32 35 -32 42 0 39 52 -7 113 -32 43 -79 60
-213 77 -47 7 -87 14 -89 16 -2 2 59 4 136 4 l141 0 16 -40 c19 -47 43 -61 62
-36 23 32 -16 113 -64 135 -16 8 -97 8 -279 0 l-257 -12 -24 29 c-13 16 -41
53 -63 82 l-40 52 65 98 c35 54 75 119 87 145 27 56 26 55 320 71 21 1 37 -13
86 -79 l61 -80 -81 -27 c-45 -16 -89 -28 -100 -28 -24 0 -49 -58 -36 -82 13
-24 35 -23 52 2 8 12 56 33 125 56 l111 36 30 -22 c48 -36 166 -46 336 -27
120 13 143 13 160 1 11 -8 42 -30 69 -49 52 -38 63 -39 80 -11 9 14 6 21 -14
37 -14 11 -47 38 -74 61 l-49 42 -121 -13 c-135 -15 -266 -23 -251 -16 6 3
115 18 244 35 l235 30 49 -51 c49 -51 63 -55 80 -27 8 12 -1 29 -38 74 l-48
59 -106 0 -106 0 -18 38 c-11 21 -26 37 -35 37 -16 0 -378 -109 -413 -124 -13
-6 -31 10 -73 64 -31 40 -56 76 -56 80 0 4 12 10 28 12 220 38 468 108 476
136 3 9 20 26 36 37 30 20 208 210 306 327 105 126 201 307 250 470 27 92 16
217 -30 353 -56 167 -140 316 -187 330 -10 4 -19 10 -19 14 0 12 129 161 140
161 5 0 25 14 44 31 44 38 123 77 290 140 72 28 141 54 154 59 17 7 22 18 22
43 0 57 -27 71 -136 75 -97 4 -409 -13 -436 -23 -11 -5 -21 9 -37 56 -18 47
-38 76 -86 124 -76 77 -101 87 -129 54 -15 -18 -18 -20 -12 -5 13 38 -10 46
-128 45 -61 -1 -147 -6 -190 -11z m204 -254 c55 -30 110 -93 110 -126 0 -24
-37 -24 -70 2 -14 11 -30 20 -36 20 -6 0 -21 12 -35 26 -27 29 -36 29 -184 -5
-163 -38 -227 -62 -368 -141 -56 -31 -59 -31 -78 -15 -33 30 -23 51 47 100 70
49 152 85 319 142 128 43 212 42 295 -3z m-48 -101 c18 -16 25 -53 10 -53 -12
0 -52 57 -45 64 9 9 15 8 35 -11z m738 9 c0 -5 -28 -22 -62 -38 -34 -16 -73
-38 -87 -50 -48 -39 -123 -74 -158 -74 -49 0 -124 21 -130 36 -10 28 33 54
113 69 43 8 95 19 114 25 19 5 53 10 75 10 22 1 54 7 70 15 34 15 65 19 65 7z
m-466 -67 c9 -26 -4 -42 -48 -59 -23 -9 -69 -34 -102 -55 -65 -42 -156 -64
-208 -50 -34 10 -116 76 -116 94 0 8 11 22 25 31 23 15 26 15 56 -10 31 -26
92 -36 104 -17 3 5 19 12 35 16 17 4 43 13 59 21 15 8 49 18 75 23 26 5 50 11
53 15 12 12 61 6 67 -9z m-75 -306 c-51 -61 -219 -241 -235 -251 -6 -4 -20 -1
-30 7 -18 14 -16 18 41 72 159 153 255 236 263 228 2 -2 -15 -27 -39 -56z
m231 -234 c21 -44 54 -125 72 -180 69 -210 30 -380 -149 -653 -75 -113 -301
-362 -402 -441 -49 -39 -85 -51 -271 -92 -217 -49 -399 -79 -473 -79 -58 0
-71 3 -86 22 -10 12 -24 19 -33 16 -8 -3 -33 -44 -55 -90 -55 -113 -146 -249
-160 -240 -7 4 -28 49 -47 99 -40 105 -110 237 -143 271 -12 12 -30 22 -40 22
-16 0 -133 63 -272 146 l-45 26 75 30 c128 51 387 147 559 207 91 32 208 80
260 106 95 48 317 183 355 216 11 9 45 31 75 49 155 90 273 208 337 334 20 39
51 94 69 123 18 28 52 87 74 130 23 43 49 86 58 96 15 17 16 17 24 -2 11 -31
44 -25 74 13 l27 34 39 -42 c21 -22 56 -77 78 -121z m-2699 -359 c88 -46 149
-89 292 -203 44 -35 84 -63 90 -63 7 0 0 -8 -14 -18 -15 -9 -59 -44 -99 -77
-99 -82 -108 -88 -123 -82 -8 3 -36 43 -62 89 -26 45 -62 106 -79 133 -18 28
-54 93 -80 145 -27 52 -60 115 -75 140 l-26 45 45 -32 c25 -17 84 -51 131 -77z
m2286 -1223 c4 -11 -24 -17 -122 -28 -42 -4 -46 -4 -25 6 35 15 123 38 134 35
6 -1 11 -7 13 -13z"/>
<path d="M1459 2675 c-38 -20 -43 -55 -19 -122 25 -71 26 -96 4 -91 -32 6 -59
56 -59 109 0 48 0 49 -32 49 -31 0 -32 -1 -27 -37 14 -104 70 -183 129 -183
67 0 85 45 55 136 -12 35 -19 71 -16 79 17 46 68 -29 64 -95 -2 -44 -2 -45 31
-48 l33 -3 -6 48 c-10 67 -43 132 -80 154 -37 22 -43 23 -77 4z"/>
<path d="M6395 2588 c-32 -25 -55 -74 -55 -118 0 -36 47 -90 77 -90 50 1 103
62 103 119 0 33 0 34 20 16 36 -33 18 -109 -31 -129 l-27 -12 19 -24 19 -25
34 37 c79 83 65 187 -31 237 -36 18 -97 13 -128 -11z m69 -34 c21 -8 21 -53 0
-82 -11 -16 -24 -22 -42 -20 -36 4 -41 44 -12 81 23 28 29 31 54 21z"/>
<path d="M1660 2422 c0 -10 -175 -122 -190 -122 -13 0 -13 -6 5 -40 15 -29 30
-38 37 -22 3 8 63 52 71 52 2 0 21 -27 42 -61 41 -66 41 -67 -25 -101 -14 -7
-27 -13 -29 -15 -2 -1 7 -16 19 -33 13 -18 25 -28 29 -22 7 12 169 116 194
125 17 7 17 8 -3 37 l-21 30 -37 -25 c-20 -14 -40 -25 -44 -25 -3 0 -22 26
-42 58 l-36 57 28 22 c15 13 33 23 40 23 16 0 15 5 -3 40 -14 28 -35 41 -35
22z"/>
<path d="M6222 2308 c-18 -27 -19 -34 -7 -36 18 -4 19 -18 4 -28 -8 -4 -4 -13
12 -25 29 -23 39 -24 39 -4 0 8 2 15 4 15 12 0 136 -83 136 -91 0 -19 16 -8
35 23 11 20 14 33 8 35 -20 7 -197 123 -204 134 -3 6 -15 -4 -27 -23z"/>
<path d="M6102 2110 c-90 -55 -96 -184 -12 -234 58 -34 147 -11 185 48 76 115
-56 257 -173 186z m114 -65 c52 -52 7 -148 -61 -131 -36 9 -75 50 -75 79 0 70
86 102 136 52z"/>
<path d="M1900 2071 c0 -9 -195 -61 -230 -61 -25 0 -25 -11 -1 -41 16 -19 22
-22 32 -11 23 22 47 13 84 -32 31 -38 35 -48 25 -65 -6 -12 -15 -21 -21 -21
-5 0 2 -16 17 -35 28 -37 44 -44 44 -21 0 23 82 210 98 223 12 10 11 16 -8 42
-21 30 -40 40 -40 22z m-30 -76 c0 -4 -7 -20 -16 -37 l-16 -31 -23 29 -23 29
21 7 c29 8 57 9 57 3z"/>
<path d="M5902 1890 c-34 -21 -71 -87 -72 -127 0 -20 5 -23 35 -23 32 0 35 2
25 19 -17 33 16 91 52 91 28 0 32 -26 14 -91 -20 -73 -20 -118 -1 -145 14 -21
17 -19 100 64 l85 86 -26 26 c-15 14 -24 20 -21 14 3 -6 -21 -37 -53 -69 -33
-33 -60 -56 -60 -52 0 4 11 34 25 67 31 75 31 104 0 135 -29 30 -59 31 -103 5z"/>
<path d="M1995 1828 c-33 -39 -72 -80 -87 -91 l-26 -20 28 -23 c28 -24 46 -32
36 -16 -3 5 20 33 50 63 l55 54 -2 -119 c-2 -113 -2 -119 21 -136 23 -17 23
-17 87 56 35 40 75 82 89 93 l26 20 -29 25 c-25 22 -29 22 -35 8 -3 -9 -27
-37 -53 -62 l-46 -45 2 114 c2 108 1 115 -20 132 -13 11 -26 19 -30 18 -3 0
-33 -32 -66 -71z"/>
<path d="M5717 1705 c-87 -30 -118 -102 -80 -182 47 -100 185 -95 239 9 19 37
18 62 -6 108 -31 60 -92 86 -153 65z m76 -36 c35 -18 57 -51 57 -87 0 -46 -16
-71 -57 -88 -69 -29 -133 16 -133 95 0 67 73 111 133 80z"/>
<path d="M5729 1637 c-27 -18 -35 -31 -37 -59 -3 -30 1 -40 22 -54 22 -14 31
-15 57 -4 34 14 64 53 54 70 -9 14 -25 12 -25 -3 0 -8 -9 -22 -21 -33 -15 -14
-24 -16 -37 -7 -27 16 -21 56 10 71 17 8 25 18 21 27 -7 19 -4 19 -44 -8z"/>
<path d="M2308 1596 l4 -83 -63 -16 c-35 -9 -73 -18 -84 -19 -17 -3 -14 -7 17
-32 34 -26 39 -27 53 -12 9 9 22 16 30 16 7 0 20 2 28 6 11 4 16 -6 20 -38 3
-24 1 -45 -4 -49 -6 -3 8 -21 30 -38 23 -18 41 -29 42 -24 2 20 -2 101 -7 134
l-5 37 70 17 c38 9 75 14 80 10 6 -3 11 -2 11 3 0 5 -18 21 -40 36 -41 27 -55
32 -45 17 3 -5 -3 -12 -12 -14 -10 -3 -28 -8 -40 -12 -21 -6 -23 -3 -23 33 0
23 5 42 12 44 7 3 -8 18 -33 35 l-45 31 4 -82z"/>
<path d="M2570 1479 c0 -14 -95 -173 -117 -194 -8 -9 -14 -17 -12 -19 22 -14
59 -36 64 -36 3 0 5 5 5 12 0 13 108 190 122 199 10 6 -4 20 -39 38 -17 9 -23
9 -23 0z"/>
<path d="M5371 1463 c-106 -32 -163 -121 -111 -173 27 -27 64 -25 128 5 62 29
82 31 82 10 0 -38 -94 -87 -135 -71 -12 4 -15 -2 -15 -29 0 -33 0 -34 38 -28
53 8 104 36 140 78 36 40 38 54 17 95 -21 41 -68 44 -136 9 -39 -19 -89 -26
-89 -11 0 30 89 77 127 67 21 -5 23 -2 23 30 0 19 -3 35 -7 34 -5 0 -32 -8
-62 -16z"/>
<path d="M2792 1237 c-2 -67 -5 -129 -8 -138 -3 -10 5 -20 21 -27 30 -14 56
-16 53 -4 -2 4 23 37 55 73 l59 64 -7 -80 c-4 -44 -9 -87 -11 -96 -3 -12 5
-20 27 -28 39 -13 50 -14 47 -2 -2 5 36 52 84 104 l88 95 -32 11 c-36 13 -51
14 -45 4 3 -5 -19 -35 -49 -68 l-54 -60 0 50 c0 28 4 67 9 88 9 37 8 38 -26
52 -39 16 -57 19 -50 8 3 -5 -19 -35 -49 -68 l-54 -60 0 68 c0 38 5 77 10 88
6 10 9 19 7 19 -3 0 -20 6 -38 14 l-34 14 -3 -121z"/>
<path d="M5055 1301 c-27 -10 -71 -28 -97 -39 -47 -21 -47 -21 -33 -49 37 -75
81 -189 78 -200 -6 -17 -8 -18 88 23 132 56 168 108 133 192 -33 79 -89 103
-169 73z m99 -66 c24 -37 31 -82 15 -102 -8 -9 -36 -27 -64 -40 l-50 -23 -26
58 c-43 96 -43 95 -1 114 58 25 106 23 126 -7z"/>
<path d="M4672 1172 c-73 -24 -81 -29 -69 -42 18 -19 70 -206 62 -220 -8 -13
1 -13 49 1 22 6 35 14 29 17 -6 4 -16 24 -23 46 -14 42 -5 56 36 56 28 0 95
-51 89 -69 -6 -14 18 -11 72 10 26 10 27 12 8 20 -11 4 -35 21 -54 37 l-34 29
21 21 c28 28 28 76 2 102 -27 27 -84 25 -188 -8z m143 -52 c0 -22 -8 -27 -58
-43 -32 -11 -60 -17 -62 -15 -2 2 -5 16 -7 33 -3 26 1 30 37 41 61 19 90 14
90 -16z"/>
<path d="M3233 1177 c0 -27 -57 -217 -65 -217 -4 0 -8 -4 -8 -9 0 -5 18 -13
40 -19 36 -9 40 -8 40 9 0 32 53 213 64 221 6 4 -2 11 -17 17 -38 15 -54 14
-54 -2z"/>
<path d="M3367 1129 c3 -19 -19 -148 -38 -218 -3 -11 22 -19 106 -36 61 -11
115 -24 121 -28 7 -4 15 0 18 9 9 24 7 56 -3 50 -8 -5 -160 21 -169 29 -5 4
29 160 39 178 13 24 9 28 -39 34 -37 5 -39 4 -35 -18z"/>
<path d="M4485 1131 c-16 -3 -29 -9 -27 -13 8 -22 12 -40 26 -112 9 -43 16
-92 16 -108 0 -29 1 -30 38 -23 45 8 46 9 33 32 -11 20 -41 175 -41 211 0 12
-3 21 -7 21 -5 -1 -21 -4 -38 -8z"/>
<path d="M3642 1004 c-2 -55 -7 -113 -11 -130 l-9 -31 61 -7 c85 -9 142 -8
171 4 39 14 66 66 66 125 0 92 -40 120 -186 131 l-89 6 -3 -98z m196 20 c17
-11 22 -24 22 -57 0 -23 -7 -53 -16 -65 -13 -19 -24 -22 -80 -22 l-64 0 0 33
c0 17 3 56 6 85 l7 52 51 -6 c28 -3 61 -13 74 -20z"/>
<path d="M4172 1093 c-43 -3 -53 -7 -48 -20 11 -28 27 -206 21 -230 -5 -20 -3
-24 12 -20 10 3 57 8 104 12 110 8 149 29 149 80 0 26 -6 39 -25 51 -23 15
-24 18 -9 29 21 15 21 62 0 83 -17 17 -100 23 -204 15z m158 -63 c0 -20 -9
-24 -87 -34 -40 -6 -43 -5 -43 18 0 30 10 34 78 35 45 1 52 -1 52 -19z m17
-96 c9 -25 -18 -41 -79 -47 l-58 -6 0 29 c0 34 9 38 78 39 39 1 54 -3 59 -15z"/>
</g>
</svg>
